# xmcd
#
# Track frame offsets: 
#        150
#        11535
#        25561
#        45761
#        65476
#        80171
#        100871
#        112196
#        128079
#        142829
#        160294
#        178232
#        200294
#        219482
#        237854
#
# Disc length: 3427 seconds
#
# Revision: 1
# Processed by: cddbd v1.5.2PL0 Copyright (c) Steve Scherf et al.
# Submitted via: ExactAudioCopy v0.99pb5
#
DISCID=c30d610f
DTITLE=Various Artist - Country Gold - CD 2
DYEAR=2009
DGENRE=Country
TTITLE0=Patty Loveless - Timber I'm falling in love
TTITLE1=Tracy Lawrence - Time marches on
TTITLE2=Alan Jackson - Little man
TTITLE3=Sammy Kershaw - Love of my life
TTITLE4=Chely Wright - Single white female
TTITLE5=Lucinda Williams - Right in time
TTITLE6=Waylon Jennings - Rough and rowdy days
TTITLE7=Kathy Mattea - Walking away a winner
TTITLE8=Mavericks - There goes my heart
TTITLE9=Wilkinsons - 26 cents
TTITLE10=Vince Gill - I still believe in you
TTITLE11=Tim McGraw - Please remember me
TTITLE12=Jessica Andrews - Who I am
TTITLE13=Don Williams - I believe in you
TTITLE14=Tracy Byrd - The keeper of the stars
EXTD=YEAR: 2009
EXTT0=
EXTT1=
EXTT2=
EXTT3=
EXTT4=
EXTT5=
EXTT6=
EXTT7=
EXTT8=
EXTT9=
EXTT10=
EXTT11=
EXTT12=
EXTT13=
EXTT14=
PLAYORDER=
